<svg width="21" height="21" viewBox="0 0 21 21" fill="none" xmlns="http://www.w3.org/2000/svg">
<path d="M18.5059 17.5515L13.2223 12.2679C14.0422 11.2079 14.4857 9.91195 14.4857 8.54883C14.4857 6.91715 13.8489 5.38721 12.6974 4.23364C11.5458 3.08008 10.0118 2.44531 8.38217 2.44531C6.75253 2.44531 5.21852 3.08211 4.06699 4.23364C2.91342 5.38517 2.27866 6.91715 2.27866 8.54883C2.27866 10.1785 2.91546 11.7125 4.06699 12.864C5.21852 14.0176 6.7505 14.6523 8.38217 14.6523C9.74529 14.6523 11.0392 14.2088 12.0992 13.391L17.3828 18.6725C17.3983 18.688 17.4167 18.7003 17.437 18.7087C17.4572 18.7171 17.4789 18.7214 17.5008 18.7214C17.5227 18.7214 17.5444 18.7171 17.5647 18.7087C17.5849 18.7003 17.6033 18.688 17.6188 18.6725L18.5059 17.7875C18.5214 17.772 18.5337 17.7536 18.5421 17.7334C18.5504 17.7131 18.5548 17.6914 18.5548 17.6695C18.5548 17.6476 18.5504 17.6259 18.5421 17.6056C18.5337 17.5854 18.5214 17.567 18.5059 17.5515ZM11.6048 11.7715C10.7422 12.6321 9.59881 13.1061 8.38217 13.1061C7.16554 13.1061 6.02215 12.6321 5.15952 11.7715C4.29892 10.9089 3.82488 9.76546 3.82488 8.54883C3.82488 7.33219 4.29892 6.18677 5.15952 5.32617C6.02215 4.46558 7.16554 3.99154 8.38217 3.99154C9.59881 3.99154 10.7442 4.46354 11.6048 5.32617C12.4654 6.1888 12.9395 7.33219 12.9395 8.54883C12.9395 9.76546 12.4654 10.9109 11.6048 11.7715Z" fill="white"/>
</svg>
