<svg width="211" height="40" viewBox="0 0 211 40" fill="none" xmlns="http://www.w3.org/2000/svg">
<path d="M61.44 28.168C60.272 28.168 59.216 27.968 58.272 27.568C57.344 27.168 56.608 26.592 56.064 25.84C55.52 25.088 55.24 24.2 55.224 23.176H58.824C58.872 23.864 59.112 24.408 59.544 24.808C59.992 25.208 60.6 25.408 61.368 25.408C62.152 25.408 62.768 25.224 63.216 24.856C63.664 24.472 63.888 23.976 63.888 23.368C63.888 22.872 63.736 22.464 63.432 22.144C63.128 21.824 62.744 21.576 62.28 21.4C61.832 21.208 61.208 21 60.408 20.776C59.32 20.456 58.432 20.144 57.744 19.84C57.072 19.52 56.488 19.048 55.992 18.424C55.512 17.784 55.272 16.936 55.272 15.88C55.272 14.888 55.52 14.024 56.016 13.288C56.512 12.552 57.208 11.992 58.104 11.608C59 11.208 60.024 11.008 61.176 11.008C62.904 11.008 64.304 11.432 65.376 12.28C66.464 13.112 67.064 14.28 67.176 15.784H63.48C63.448 15.208 63.2 14.736 62.736 14.368C62.288 13.984 61.688 13.792 60.936 13.792C60.28 13.792 59.752 13.96 59.352 14.296C58.968 14.632 58.776 15.12 58.776 15.76C58.776 16.208 58.92 16.584 59.208 16.888C59.512 17.176 59.88 17.416 60.312 17.608C60.76 17.784 61.384 17.992 62.184 18.232C63.272 18.552 64.16 18.872 64.848 19.192C65.536 19.512 66.128 19.992 66.624 20.632C67.12 21.272 67.368 22.112 67.368 23.152C67.368 24.048 67.136 24.88 66.672 25.648C66.208 26.416 65.528 27.032 64.632 27.496C63.736 27.944 62.672 28.168 61.44 28.168ZM82.641 21.064C82.641 21.544 82.609 21.976 82.545 22.36H72.825C72.905 23.32 73.241 24.072 73.833 24.616C74.425 25.16 75.153 25.432 76.017 25.432C77.265 25.432 78.153 24.896 78.681 23.824H82.305C81.921 25.104 81.185 26.16 80.097 26.992C79.009 27.808 77.673 28.216 76.089 28.216C74.809 28.216 73.657 27.936 72.633 27.376C71.625 26.8 70.833 25.992 70.257 24.952C69.697 23.912 69.417 22.712 69.417 21.352C69.417 19.976 69.697 18.768 70.257 17.728C70.817 16.688 71.601 15.888 72.609 15.328C73.617 14.768 74.777 14.488 76.089 14.488C77.353 14.488 78.481 14.76 79.473 15.304C80.481 15.848 81.257 16.624 81.801 17.632C82.361 18.624 82.641 19.768 82.641 21.064ZM79.161 20.104C79.145 19.24 78.833 18.552 78.225 18.04C77.617 17.512 76.873 17.248 75.993 17.248C75.161 17.248 74.457 17.504 73.881 18.016C73.321 18.512 72.977 19.208 72.849 20.104H79.161ZM92.4615 14.512C94.0455 14.512 95.3255 15.016 96.3015 16.024C97.2775 17.016 97.7655 18.408 97.7655 20.2V28H94.4055V20.656C94.4055 19.6 94.1415 18.792 93.6135 18.232C93.0855 17.656 92.3655 17.368 91.4535 17.368C90.5255 17.368 89.7895 17.656 89.2455 18.232C88.7175 18.792 88.4535 19.6 88.4535 20.656V28H85.0935V14.704H88.4535V16.36C88.9015 15.784 89.4695 15.336 90.1575 15.016C90.8615 14.68 91.6295 14.512 92.4615 14.512ZM111.305 11.248V13.96H104.321V18.256H109.673V20.92H104.321V28H100.961V11.248H111.305ZM115.391 13.12C114.799 13.12 114.303 12.936 113.903 12.568C113.519 12.184 113.327 11.712 113.327 11.152C113.327 10.592 113.519 10.128 113.903 9.76C114.303 9.376 114.799 9.184 115.391 9.184C115.983 9.184 116.471 9.376 116.855 9.76C117.255 10.128 117.455 10.592 117.455 11.152C117.455 11.712 117.255 12.184 116.855 12.568C116.471 12.936 115.983 13.12 115.391 13.12ZM117.047 14.704V28H113.687V14.704H117.047ZM127.735 14.512C129.319 14.512 130.599 15.016 131.575 16.024C132.551 17.016 133.039 18.408 133.039 20.2V28H129.679V20.656C129.679 19.6 129.415 18.792 128.887 18.232C128.359 17.656 127.639 17.368 126.727 17.368C125.799 17.368 125.063 17.656 124.519 18.232C123.991 18.792 123.727 19.6 123.727 20.656V28H120.367V14.704H123.727V16.36C124.175 15.784 124.743 15.336 125.431 15.016C126.135 14.68 126.903 14.512 127.735 14.512ZM135.37 21.304C135.37 19.96 135.634 18.768 136.162 17.728C136.706 16.688 137.434 15.888 138.346 15.328C139.274 14.768 140.306 14.488 141.442 14.488C142.434 14.488 143.298 14.688 144.034 15.088C144.786 15.488 145.386 15.992 145.834 16.6V14.704H149.218V28H145.834V26.056C145.402 26.68 144.802 27.2 144.034 27.616C143.282 28.016 142.41 28.216 141.418 28.216C140.298 28.216 139.274 27.928 138.346 27.352C137.434 26.776 136.706 25.968 136.162 24.928C135.634 23.872 135.37 22.664 135.37 21.304ZM145.834 21.352C145.834 20.536 145.674 19.84 145.354 19.264C145.034 18.672 144.602 18.224 144.058 17.92C143.514 17.6 142.93 17.44 142.306 17.44C141.682 17.44 141.106 17.592 140.578 17.896C140.05 18.2 139.618 18.648 139.282 19.24C138.962 19.816 138.802 20.504 138.802 21.304C138.802 22.104 138.962 22.808 139.282 23.416C139.618 24.008 140.05 24.464 140.578 24.784C141.122 25.104 141.698 25.264 142.306 25.264C142.93 25.264 143.514 25.112 144.058 24.808C144.602 24.488 145.034 24.04 145.354 23.464C145.674 22.872 145.834 22.168 145.834 21.352ZM159.868 14.512C161.452 14.512 162.732 15.016 163.708 16.024C164.684 17.016 165.172 18.408 165.172 20.2V28H161.812V20.656C161.812 19.6 161.548 18.792 161.02 18.232C160.492 17.656 159.772 17.368 158.86 17.368C157.932 17.368 157.196 17.656 156.652 18.232C156.124 18.792 155.86 19.6 155.86 20.656V28H152.5V14.704H155.86V16.36C156.308 15.784 156.876 15.336 157.564 15.016C158.268 14.68 159.036 14.512 159.868 14.512ZM174.055 25.336C175.415 25.336 176.303 24.728 176.719 23.512H180.343C180.007 24.808 179.383 25.864 178.471 26.68C177.575 27.496 176.447 27.984 175.087 28.144V29.08C175.967 29.08 176.703 29.304 177.295 29.752C177.903 30.2 178.207 30.848 178.207 31.696C178.207 32.56 177.895 33.224 177.271 33.688C176.663 34.152 175.911 34.384 175.015 34.384H171.607V32.416H174.463C174.847 32.416 175.135 32.36 175.327 32.248C175.535 32.136 175.639 31.936 175.639 31.648C175.639 31.36 175.535 31.16 175.327 31.048C175.135 30.952 174.847 30.904 174.463 30.904H172.975V28.144C171.887 27.984 170.927 27.608 170.095 27.016C169.279 26.408 168.639 25.624 168.175 24.664C167.727 23.688 167.503 22.584 167.503 21.352C167.503 19.976 167.783 18.776 168.343 17.752C168.903 16.712 169.679 15.912 170.671 15.352C171.663 14.776 172.799 14.488 174.079 14.488C175.727 14.488 177.087 14.904 178.159 15.736C179.247 16.552 179.975 17.704 180.343 19.192H176.719C176.527 18.616 176.199 18.168 175.735 17.848C175.287 17.512 174.727 17.344 174.055 17.344C173.095 17.344 172.335 17.696 171.775 18.4C171.215 19.088 170.935 20.072 170.935 21.352C170.935 22.616 171.215 23.6 171.775 24.304C172.335 24.992 173.095 25.336 174.055 25.336ZM181.94 21.304C181.94 19.96 182.204 18.768 182.732 17.728C183.276 16.688 184.004 15.888 184.916 15.328C185.844 14.768 186.876 14.488 188.012 14.488C189.004 14.488 189.868 14.688 190.604 15.088C191.356 15.488 191.956 15.992 192.404 16.6V14.704H195.788V28H192.404V26.056C191.972 26.68 191.372 27.2 190.604 27.616C189.852 28.016 188.98 28.216 187.988 28.216C186.868 28.216 185.844 27.928 184.916 27.352C184.004 26.776 183.276 25.968 182.732 24.928C182.204 23.872 181.94 22.664 181.94 21.304ZM192.404 21.352C192.404 20.536 192.244 19.84 191.924 19.264C191.604 18.672 191.172 18.224 190.628 17.92C190.084 17.6 189.5 17.44 188.876 17.44C188.252 17.44 187.676 17.592 187.148 17.896C186.62 18.2 186.188 18.648 185.852 19.24C185.532 19.816 185.372 20.504 185.372 21.304C185.372 22.104 185.532 22.808 185.852 23.416C186.188 24.008 186.62 24.464 187.148 24.784C187.692 25.104 188.268 25.264 188.876 25.264C189.5 25.264 190.084 25.112 190.628 24.808C191.172 24.488 191.604 24.04 191.924 23.464C192.244 22.872 192.404 22.168 192.404 21.352ZM204.158 28.216C203.07 28.216 202.094 28.024 201.23 27.64C200.366 27.24 199.678 26.704 199.166 26.032C198.67 25.36 198.398 24.616 198.35 23.8H201.734C201.798 24.312 202.046 24.736 202.478 25.072C202.926 25.408 203.478 25.576 204.134 25.576C204.774 25.576 205.27 25.448 205.622 25.192C205.99 24.936 206.174 24.608 206.174 24.208C206.174 23.776 205.95 23.456 205.502 23.248C205.07 23.024 204.374 22.784 203.414 22.528C202.422 22.288 201.606 22.04 200.966 21.784C200.342 21.528 199.798 21.136 199.334 20.608C198.886 20.08 198.662 19.368 198.662 18.472C198.662 17.736 198.87 17.064 199.286 16.456C199.718 15.848 200.326 15.368 201.11 15.016C201.91 14.664 202.846 14.488 203.918 14.488C205.502 14.488 206.766 14.888 207.71 15.688C208.654 16.472 209.174 17.536 209.27 18.88H206.054C206.006 18.352 205.782 17.936 205.382 17.632C204.998 17.312 204.478 17.152 203.822 17.152C203.214 17.152 202.742 17.264 202.406 17.488C202.086 17.712 201.926 18.024 201.926 18.424C201.926 18.872 202.15 19.216 202.598 19.456C203.046 19.68 203.742 19.912 204.686 20.152C205.646 20.392 206.438 20.64 207.062 20.896C207.686 21.152 208.222 21.552 208.67 22.096C209.134 22.624 209.374 23.328 209.39 24.208C209.39 24.976 209.174 25.664 208.742 26.272C208.326 26.88 207.718 27.36 206.918 27.712C206.134 28.048 205.214 28.216 204.158 28.216Z" fill="#434B69"/>
<path d="M34.1422 5.85781C30.3647 2.08031 25.3422 0 20 0C14.6578 0 9.63531 2.08031 5.85781 5.85781C2.08031 9.63531 0 14.6578 0 20C0 25.3422 2.08039 30.3646 5.85781 34.1422C9.63523 37.9198 14.6578 40 20 40C25.3422 40 30.3647 37.9197 34.1422 34.1422C37.9197 30.3647 40 25.3422 40 20C40 14.6578 37.9196 9.63539 34.1422 5.85781Z" fill="#2C4FB4"/>
<g clip-path="url(#clip0_1_47)">
<path d="M20.5714 8.00015V33.143" stroke="white" stroke-width="2" stroke-linecap="round" stroke-linejoin="round"/>
<path d="M26.2857 12.5716H17.7142C16.6534 12.5716 15.636 12.993 14.8858 13.7432C14.1357 14.4933 13.7142 15.5107 13.7142 16.5716C13.7142 17.6325 14.1357 18.6499 14.8858 19.4C15.636 20.1502 16.6534 20.5716 17.7142 20.5716H23.4285C24.4894 20.5716 25.5068 20.993 26.2569 21.7432C27.0071 22.4933 27.4285 23.5107 27.4285 24.5716C27.4285 25.6325 27.0071 26.6499 26.2569 27.4C25.5068 28.1502 24.4894 28.5716 23.4285 28.5716H13.7142" stroke="white" stroke-width="2" stroke-linecap="round" stroke-linejoin="round"/>
</g>
<defs>
<clipPath id="clip0_1_47">
<rect width="27.4286" height="27.4286" fill="white" transform="translate(6.85712 6.8573)"/>
</clipPath>
</defs>
</svg>
