<svg width="17" height="4" viewBox="0 0 17 4" fill="none" xmlns="http://www.w3.org/2000/svg">
<path d="M0.6875 1.85156C0.6875 1.48438 0.800781 1.17578 1.02734 0.925781C1.26172 0.667969 1.59766 0.539062 2.03516 0.539062C2.47266 0.539062 2.80469 0.667969 3.03125 0.925781C3.26562 1.17578 3.38281 1.48438 3.38281 1.85156C3.38281 2.21094 3.26562 2.51562 3.03125 2.76562C2.80469 3.01562 2.47266 3.14062 2.03516 3.14062C1.59766 3.14062 1.26172 3.01562 1.02734 2.76562C0.800781 2.51562 0.6875 2.21094 0.6875 1.85156ZM7.01562 1.85156C7.01562 1.48438 7.12891 1.17578 7.35547 0.925781C7.58984 0.667969 7.92578 0.539062 8.36328 0.539062C8.80078 0.539062 9.13281 0.667969 9.35938 0.925781C9.59375 1.17578 9.71094 1.48438 9.71094 1.85156C9.71094 2.21094 9.59375 2.51562 9.35938 2.76562C9.13281 3.01562 8.80078 3.14062 8.36328 3.14062C7.92578 3.14062 7.58984 3.01562 7.35547 2.76562C7.12891 2.51562 7.01562 2.21094 7.01562 1.85156ZM13.3438 1.85156C13.3438 1.48438 13.457 1.17578 13.6836 0.925781C13.918 0.667969 14.2539 0.539062 14.6914 0.539062C15.1289 0.539062 15.4609 0.667969 15.6875 0.925781C15.9219 1.17578 16.0391 1.48438 16.0391 1.85156C16.0391 2.21094 15.9219 2.51562 15.6875 2.76562C15.4609 3.01562 15.1289 3.14062 14.6914 3.14062C14.2539 3.14062 13.918 3.01562 13.6836 2.76562C13.457 2.51562 13.3438 2.21094 13.3438 1.85156Z" fill="black"/>
</svg>
