<svg width="24" height="24" viewBox="0 0 24 24" fill="none" xmlns="http://www.w3.org/2000/svg">
<path fill-rule="evenodd" clip-rule="evenodd" d="M11 5.01385V2L13 2V5.01385C14.2778 5.02662 15.2418 5.01606 16.0049 5.0077C16.3808 5.00358 16.708 5 17 5C18.0674 5 19.2996 5.12881 20.4158 5.84632C21.552 6.57678 22.416 7.81598 22.9615 9.72528C23.9996 13.3585 24 15.4677 24 18C24 19.5755 23.3363 20.6699 22.2539 21.3013C21.2675 21.8767 20.0455 22 19 22C18.1452 22 17.476 21.5668 16.9702 21.1374C16.6397 20.8568 16.2833 20.4883 15.9513 20.145C15.8028 19.9914 15.6592 19.8428 15.5249 19.7095C14.5783 18.7692 13.5717 18 12 18C10.4283 18 9.42175 18.7692 8.47509 19.7095C8.34084 19.8428 8.19719 19.9914 8.04867 20.145C7.71669 20.4883 7.36032 20.8568 7.02981 21.1374C6.52396 21.5668 5.85484 22 5 22C3.95453 22 2.73255 21.8767 1.74613 21.3013C0.663748 20.6699 0 19.5755 0 18C0 15.4677 0.000408888 13.3585 1.03848 9.72528C1.58399 7.81598 2.44797 6.57678 3.58424 5.84632C4.70036 5.12881 5.93265 5 7 5C7.29198 5 7.61916 5.00358 7.99506 5.0077C8.75824 5.01606 9.72221 5.02662 11 5.01385ZM4.66576 7.52868C4.05203 7.92322 3.41601 8.68402 2.96152 10.2747C2 13.6401 2 15.5307 2 17.9969V18C2 18.9245 2.33625 19.3301 2.75387 19.5737C3.26745 19.8733 4.04547 20 5 20C5.14516 20 5.35783 19.9332 5.73548 19.6126C5.99272 19.3943 6.22879 19.1494 6.51343 18.8541C6.67705 18.6844 6.85671 18.4981 7.06567 18.2905C8.1326 17.2308 9.62606 16 12 16C14.3739 16 15.8674 17.2308 16.9343 18.2905C17.1433 18.4981 17.323 18.6844 17.4866 18.8541C17.7712 19.1494 18.0073 19.3943 18.2645 19.6126C18.6422 19.9332 18.8548 20 19 20C19.9545 20 20.7325 19.8733 21.2461 19.5737C21.6637 19.3301 22 18.9245 22 18V17.9969C22 15.5307 22 13.6401 21.0385 10.2747C20.584 8.68402 19.948 7.92322 19.3342 7.52868C18.7004 7.12119 17.9326 7 17 7C16.7345 7 16.4239 7.00339 16.0606 7.00736C15.1123 7.01772 13.8047 7.032 12 7.00016C10.1953 7.032 8.88767 7.01772 7.93945 7.00736C7.57611 7.00339 7.26555 7 7 7C6.06735 7 5.29964 7.12119 4.66576 7.52868ZM6 11V9H8V11H10V13H8V15L6 15V13H4V11H6ZM12 11C12 9.89543 12.8954 9 14 9C15.1046 9 16 9.89543 16 11C16 12.1046 15.1046 13 14 13C12.8954 13 12 12.1046 12 11ZM16 14C16 12.8954 16.8954 12 18 12C19.1046 12 20 12.8954 20 14C20 15.1046 19.1046 16 18 16C16.8954 16 16 15.1046 16 14Z" fill="#FFFFFF"/>
</svg>
