<svg width="24" height="24" viewBox="0 0 24 24" fill="none" xmlns="http://www.w3.org/2000/svg">
<path d="M21.6305 16.4508H7.67344L8.37422 15.0234L20.018 15.0023C20.4117 15.0023 20.7492 14.7211 20.8195 14.332L22.432 5.30625C22.4742 5.06953 22.4109 4.82578 22.2562 4.64062C22.1798 4.5495 22.0844 4.4761 21.9768 4.42551C21.8691 4.37492 21.7518 4.34835 21.6328 4.34766L6.82031 4.29844L6.69375 3.70312C6.61406 3.32344 6.27188 3.04688 5.88281 3.04688H2.26172C2.04229 3.04688 1.83186 3.13404 1.6767 3.2892C1.52154 3.44436 1.43438 3.65479 1.43438 3.87422C1.43438 4.09364 1.52154 4.30408 1.6767 4.45924C1.83186 4.6144 2.04229 4.70156 2.26172 4.70156H5.2125L5.76563 7.33125L7.12734 13.9242L5.37422 16.7859C5.28318 16.9088 5.22834 17.0547 5.21591 17.2071C5.20349 17.3596 5.23397 17.5124 5.30391 17.6484C5.44453 17.9273 5.72813 18.1031 6.04219 18.1031H7.51406C7.20028 18.5199 7.03079 19.0275 7.03125 19.5492C7.03125 20.8758 8.10938 21.9539 9.43594 21.9539C10.7625 21.9539 11.8406 20.8758 11.8406 19.5492C11.8406 19.0266 11.6672 18.518 11.3578 18.1031H15.1336C14.8198 18.5199 14.6503 19.0275 14.6508 19.5492C14.6508 20.8758 15.7289 21.9539 17.0555 21.9539C18.382 21.9539 19.4602 20.8758 19.4602 19.5492C19.4602 19.0266 19.2867 18.518 18.9773 18.1031H21.6328C22.0875 18.1031 22.4602 17.7328 22.4602 17.2758C22.4588 17.0566 22.3708 16.8468 22.2154 16.6923C22.0599 16.5377 21.8497 16.4509 21.6305 16.4508V16.4508ZM7.16484 5.92969L20.6602 5.97422L19.3383 13.3758L8.7375 13.3945L7.16484 5.92969ZM9.43594 20.2898C9.02813 20.2898 8.69531 19.957 8.69531 19.5492C8.69531 19.1414 9.02813 18.8086 9.43594 18.8086C9.84375 18.8086 10.1766 19.1414 10.1766 19.5492C10.1766 19.7456 10.0985 19.934 9.95964 20.0729C9.82074 20.2118 9.63236 20.2898 9.43594 20.2898V20.2898ZM17.0555 20.2898C16.6477 20.2898 16.3148 19.957 16.3148 19.5492C16.3148 19.1414 16.6477 18.8086 17.0555 18.8086C17.4633 18.8086 17.7961 19.1414 17.7961 19.5492C17.7961 19.7456 17.7181 19.934 17.5792 20.0729C17.4403 20.2118 17.2519 20.2898 17.0555 20.2898V20.2898Z" fill="white"/>
</svg>
